<svg xmlns="http://www.w3.org/2000/svg" xml:space="preserve" id="Слой_1" x="0" y="0" style="enable-background:new 0 0 42.2 32" version="1.1" viewBox="0 0 42.16 32"><style>.st0,.st1{fill-rule:evenodd;clip-rule:evenodd;fill:#464a4d}.st1{fill:#f36c21}</style><path d="M0 22.1 1.9 8.7h2.4l-1.5 11h4.1l-.3 2.4zM32.3 22.1l1.9-13.4h3.7c1.5 0 2.7.4 3.4 1.1.7.7 1 1.8.8 3.1-.2 1.2-.7 2.2-1.6 3-.9.8-2.2 1.2-3.7 1.2h-1.3l-.7 5.1h-2.5v-.1zm4-10.8-.5 3.4h1.5c.7 0 1.2-.1 1.6-.4.4-.3.7-.7.7-1.3.1-.6 0-1-.4-1.3-.3-.3-.8-.4-1.5-.4h-1.4z" class="st0"/><path d="M17.8 11.5C18.5 9.2 20.9 0 20.9 0H18l-4.4 16.4c-.2.8.3 1.5 1.1 1.5h6.4L22 15h-5.1l.9-3.5z" class="st1"/><path d="M25.3 11.3c.8 0 1.3.7 1.1 1.5l-2.1 7.4c-.2.8-1 1.5-1.9 1.5h-3.8c-.5 1.8-1.4 5.3-1.9 7.1h.8L14.2 32l-1.4-3.3h.9l2.3-8.6c.2-.8 1-1.5 1.9-1.5h3.8c.3-1.1 1-3.4 1.3-4.5h-5l.8-2.8h6.5zM14.2 23.5c-2.5-1.7-4.1-4.5-4.1-7.8 0-5.1 4-9.2 9.1-9.4l.7-2.6h-.3c-6.6 0-12 5.4-12 12 0 4.4 2.4 8.3 5.9 10.4l.7-2.6z" class="st1"/><path d="m20.9 3.7-.7 2.6c4.9.3 8.9 4.4 8.9 9.4 0 5.2-4.2 9.4-9.4 9.4-1.7 0-3.2-.4-4.6-1.2l-.7 2.5c1.6.8 3.4 1.2 5.3 1.2 6.6 0 12-5.4 12-12 0-6.2-4.7-11.3-10.8-11.9" class="st1"/></svg>
